<svg width="25" height="25" viewBox="0 0 25 25" fill="none" xmlns="http://www.w3.org/2000/svg">
<path d="M11.6264 0.717419C5.02517 1.29495 0.144327 7.14799 0.725401 13.7897C1.25049 19.7915 6.05622 24.3838 11.8508 24.7895L11.1155 16.3845L8.07909 16.6501L7.77487 13.1729L10.8113 12.9073L10.5795 10.2576C10.3155 7.24104 11.9548 5.42146 14.684 5.18268C15.9918 5.06827 17.3823 5.18295 17.3823 5.18295L17.641 8.14056L16.13 8.27276C14.6476 8.40245 14.2651 9.37157 14.3483 10.323L14.5456 12.5782L17.8581 12.2883L17.6328 15.8119L14.8498 16.0554L15.5852 24.4603C21.2217 23.0594 25.1569 17.7012 24.6317 11.6982C24.0506 5.05646 18.2275 0.139891 11.6264 0.717419V0.717419Z" fill="#FBFBFB"/>
</svg>
