<svg width="65" height="65" viewBox="0 0 65 65" fill="none" xmlns="http://www.w3.org/2000/svg">
<path d="M32.8937 21.9339C27.0179 21.9339 22.2227 26.729 22.2227 32.6049C22.2227 38.4807 27.0179 43.2759 32.8937 43.2759C38.7696 43.2759 43.5648 38.4807 43.5648 32.6049C43.5648 26.729 38.7696 21.9339 32.8937 21.9339ZM64.8988 32.6049C64.8988 28.186 64.9388 23.8071 64.6906 19.3962C64.4425 14.2728 63.2737 9.72584 59.5272 5.97938C55.7728 2.22491 51.2338 1.06415 46.1104 0.815986C41.6915 0.567823 37.3126 0.60785 32.9017 0.60785C28.4828 0.60785 24.104 0.567823 19.6931 0.815986C14.5697 1.06415 10.0227 2.23292 6.27625 5.97938C2.52179 9.73385 1.36102 14.2728 1.11286 19.3962C0.864698 23.8151 0.904725 28.194 0.904725 32.6049C0.904725 37.0158 0.864698 41.4027 1.11286 45.8136C1.36102 50.9369 2.52979 55.4839 6.27625 59.2304C10.0307 62.9848 14.5697 64.1456 19.6931 64.3938C24.112 64.6419 28.4908 64.6019 32.9017 64.6019C37.3206 64.6019 41.6995 64.6419 46.1104 64.3938C51.2338 64.1456 55.7808 62.9768 59.5272 59.2304C63.2817 55.4759 64.4425 50.9369 64.6906 45.8136C64.9468 41.4027 64.8988 37.0238 64.8988 32.6049ZM32.8937 49.0237C23.8078 49.0237 16.475 41.6908 16.475 32.6049C16.475 23.5189 23.8078 16.1861 32.8937 16.1861C41.9797 16.1861 49.3125 23.5189 49.3125 32.6049C49.3125 41.6908 41.9797 49.0237 32.8937 49.0237ZM49.985 19.3482C47.8636 19.3482 46.1505 17.635 46.1505 15.5136C46.1505 13.3922 47.8636 11.6791 49.985 11.6791C52.1064 11.6791 53.8195 13.3922 53.8195 15.5136C53.8201 16.0174 53.7214 16.5163 53.5289 16.9818C53.3364 17.4473 53.054 17.8703 52.6978 18.2265C52.3416 18.5827 51.9186 18.8651 51.4531 19.0576C50.9876 19.25 50.4887 19.3488 49.985 19.3482Z" fill="white"/>
</svg>
