<svg width="65" height="65" viewBox="0 0 65 65" fill="none" xmlns="http://www.w3.org/2000/svg">
<path fill-rule="evenodd" clip-rule="evenodd" d="M0.902345 5.95239C0.902345 4.5343 1.46568 3.17429 2.46842 2.17155C3.47116 1.16881 4.83117 0.605476 6.24925 0.605476H59.5496C60.2524 0.604328 60.9485 0.741804 61.598 1.01003C62.2476 1.27826 62.8379 1.67198 63.3351 2.16864C63.8323 2.66529 64.2266 3.25514 64.4956 3.90441C64.7645 4.55368 64.9027 5.24962 64.9023 5.95239V59.2527C64.9031 59.9557 64.7653 60.6518 64.4967 61.3014C64.2282 61.951 63.8342 62.5412 63.3373 63.0384C62.8404 63.5355 62.2504 63.9298 61.6009 64.1987C60.9515 64.4676 60.2554 64.6059 59.5525 64.6055H6.24925C5.54684 64.6055 4.85131 64.4671 4.20241 64.1982C3.5535 63.9293 2.96393 63.5352 2.46739 63.0384C1.97084 62.5416 1.57705 61.9518 1.30852 61.3027C1.03998 60.6537 0.901962 59.9581 0.902345 59.2557V5.95239ZM26.2347 25.0069H34.9009V29.3589C36.1518 26.8571 39.3518 24.6055 44.1605 24.6055C53.3794 24.6055 55.5642 29.5888 55.5642 38.732V55.6687H46.2347V40.8149C46.2347 35.6077 44.9838 32.6695 41.8071 32.6695C37.3998 32.6695 35.5671 35.8375 35.5671 40.8149V55.6687H26.2347V25.0069ZM10.2347 55.2702H19.5671V24.6055H10.2347V55.2673V55.2702ZM20.9023 14.604C20.9199 15.4031 20.7778 16.1976 20.4841 16.9409C20.1905 17.6843 19.7514 18.3615 19.1925 18.9328C18.6336 19.5042 17.9662 19.9581 17.2295 20.268C16.4928 20.578 15.7016 20.7376 14.9023 20.7376C14.1031 20.7376 13.3119 20.578 12.5752 20.268C11.8385 19.9581 11.1711 19.5042 10.6122 18.9328C10.0533 18.3615 9.61418 17.6843 9.32056 16.9409C9.02693 16.1976 8.88475 15.4031 8.90234 14.604C8.93688 13.0356 9.58419 11.543 10.7056 10.446C11.8271 9.34898 13.3335 8.73469 14.9023 8.73469C16.4711 8.73469 17.9776 9.34898 19.099 10.446C20.2205 11.543 20.8678 13.0356 20.9023 14.604Z" fill="white"/>
</svg>
