<svg width="25" height="25" viewBox="0 0 25 25" fill="none" xmlns="http://www.w3.org/2000/svg">
<path d="M11.0265 0.566924C4.4242 1.14455 -0.459612 6.96485 0.118012 13.5671C0.695637 20.1694 6.51594 25.0532 13.1182 24.4756C19.7205 23.898 24.6043 18.0777 24.0267 11.4754C23.4491 4.87311 17.6288 -0.0107007 11.0265 0.566924ZM9.57952 17.7321L7.15876 17.9439L6.47721 10.1536L8.89796 9.94186L9.57952 17.7321ZM7.58897 9.09272C6.82439 9.15961 6.28264 8.66118 6.22403 7.99124C6.16422 7.3076 6.62755 6.73755 7.40831 6.66924C8.18908 6.60093 8.71323 7.08459 8.78798 7.76692C8.8466 8.43686 8.40087 9.02168 7.58897 9.09272ZM18.4207 16.9586L16 17.1704L15.6223 12.8531C15.5344 11.8482 15.1235 11.1965 14.2481 11.2731C13.5794 11.3316 13.2226 11.8284 13.0859 12.2883C13.035 12.4521 13.0384 12.6777 13.0579 12.9006L13.4509 17.3921L11.0289 17.604L10.5648 12.2993C10.4797 11.3268 10.3774 10.5164 10.2838 9.81936L12.387 9.63535L12.5925 10.7078L12.6411 10.7035C12.9154 10.1676 13.6306 9.34963 14.9369 9.23535C16.5295 9.09601 17.8171 10.0587 18.0178 12.3524L18.4207 16.9586Z" fill="#FBFBFB"/>
</svg>
