<svg width="25" height="25" viewBox="0 0 25 25" fill="none" xmlns="http://www.w3.org/2000/svg">
<path d="M11.4255 0.418487C4.82396 0.996049 -0.0605021 6.81712 0.51706 13.4187C1.09462 20.0203 6.9157 24.9047 13.5173 24.3272C20.1188 23.7496 25.0033 17.9285 24.4257 11.327C23.8482 4.72539 18.0271 -0.159076 11.4255 0.418487ZM17.9589 8.92698C17.9779 9.05169 17.9893 9.18244 18.0005 9.31052C18.3432 13.2277 15.7548 18.0009 10.3033 18.4779C8.62219 18.625 7.02114 18.273 5.63476 17.5473C5.87725 17.553 6.10766 17.5436 6.35315 17.5221C7.74071 17.4007 8.97511 16.8195 9.92219 15.9353C8.61769 16.0226 7.44895 15.2644 6.97265 14.123C7.43478 14.1498 7.84571 14.1139 8.30484 13.9527C7.62243 13.8751 6.98792 13.5637 6.5091 13.0713C6.03027 12.579 5.73668 11.936 5.67819 11.2517L5.67492 11.2143C6.08655 11.4015 6.56009 11.4972 7.0447 11.4736C6.61501 11.2386 6.24996 10.9011 5.98193 10.4912C5.7139 10.0812 5.55116 9.61149 5.50814 9.1236C5.45981 8.57124 5.55978 8.05431 5.78033 7.59405C6.6047 8.44509 7.59893 9.11314 8.69839 9.55478C9.79785 9.99641 10.9779 10.2017 12.162 10.1574C11.5668 8.17946 12.9291 6.41741 14.7383 6.25913C15.5921 6.18443 16.3919 6.47476 16.984 7.00373C17.6428 6.81972 18.2613 6.51287 18.8029 6.12669C18.6414 6.83184 18.2278 7.4515 17.6434 7.871C18.2355 7.75466 18.7974 7.5388 19.3107 7.25996C18.9596 7.88759 18.5013 8.45738 17.9589 8.92698Z" fill="#FBFBFB"/>
</svg>
